g GameObject2
v -18.5969 -6.952678E-07 7.681785
v 20.50352 6.952678E-07 7.681786
v -18.5969 -6.952678E-07 -7.681786
v 20.50352 6.952678E-07 -7.681786
v 1.927909 6.383558 3.945256
v 1.927909 6.383558 -3.945256
v 1.927907 -6.383558 3.945256
v 1.927907 -6.383558 -3.945256
v 28.02351 5.286814 1.374802E-08
v -25.8295 5.286812 -2.055544E-07
v 28.02351 -5.286812 1.374802E-08
v -25.8295 -5.286814 -2.055544E-07
v 12.05166 3.996629 6.466681
v -10.13548 3.996629 6.466681
v 1.927909 0 7.504322
v -17.59414 7.182028 2.743291
v -25.48808 3.107685 5.028342
v 1.92791 7.504322 -1.685431E-07
v -17.59414 7.182028 -2.743291
v 19.5 7.182031 -2.743291
v 19.5 7.182031 2.743291
v 27.60717 3.107687 5.028343
v 27.60717 -3.107686 5.028343
v 29.517 8.577396E-07 1.398762E-08
v 27.60717 -3.107686 -5.028343
v 27.60717 3.107687 -5.028343
v 12.05166 3.996629 -6.466681
v 1.927908 0 -7.504322
v -10.13548 3.996629 -6.466681
v 12.05166 -3.996629 -6.466681
v -10.13548 -3.996629 -6.466681
v 19.5 -7.182028 -2.743291
v 19.5 -7.182028 2.743291
v 1.927907 -7.504322 -1.685431E-07
v -17.59415 -7.18203 2.743291
v -17.59415 -7.18203 -2.743291
v -10.13548 -3.996629 6.466681
v -25.48808 -3.107687 5.028342
v 12.05166 -3.996629 6.466681
v -26.68857 -8.577396E-07 -2.612565E-07
v -25.48808 -3.107687 -5.028342
v -25.48808 3.107685 -5.028342
v 17.27165 2.046106 7.402878
v 8.261844 2.003626 7.249185
v 11.51443 4.066132E-07 7.592611
v -3.830761 5.445703 5.180864
v 1.927909 3.945256 6.383558
v 7.68367 5.445704 5.180864
v -9.597117 -4.066132E-07 7.592611
v -4.410024 2.003625 7.249185
v -15.36487 2.046105 7.402878
v -7.393728 6.72494 3.446271
v -14.68009 5.834966 4.983656
v -25.93763 4.453397 2.401917
v -24.44621 5.912202 4.27811
v -24.69612 6.856732 1.484773
v -21.01089 4.011733 6.49112
v -24.38883 1.48485 7.207616
v 1.92791 7.169799 2.215589
v -8.331874 7.463118 1.274852
v -7.393729 6.72494 -3.446271
v -8.331874 7.463118 -1.274853
v 1.92791 7.169799 -2.21559
v -18.5969 7.681783 -1.797916E-07
v -24.69612 6.856732 -1.484773
v 26.68267 6.856733 -1.484773
v 20.50352 7.681786 1.311013E-08
v 26.68267 6.856733 1.484773
v 10.25176 7.463119 -1.274853
v 10 6.724941 -3.446271
v 10 6.724941 3.44627
v 10.25176 7.463119 1.274853
v 26.33418 1.484852 7.207618
v 22.92363 4.011734 6.49112
v 26.39891 5.912204 4.278111
v 28.15888 4.453399 2.401917
v 16.58769 5.834969 4.983657
v 26.33418 -1.48485 7.207618
v 28.02351 8.579025E-07 5.286813
v 29.07123 -2.968584 1.391586E-08
v 29.02757 -1.633502 2.643063
v 28.15888 -4.453397 2.401917
v 29.02757 1.633504 2.643063
v 29.07123 2.968585 1.391586E-08
v 28.15888 -4.453397 -2.401917
v 29.02757 -1.633502 -2.643063
v 26.33418 1.484852 -7.207617
v 28.02351 8.579025E-07 -5.286813
v 26.33418 -1.48485 -7.207617
v 29.02757 1.633504 -2.643063
v 28.15888 4.453399 -2.401917
v 26.39891 5.912204 -4.278111
v 17.27165 2.046106 -7.402878
v 22.92363 4.011734 -6.49112
v 16.58769 5.834969 -4.983657
v 7.68367 5.445704 -5.180864
v 11.51443 4.066132E-07 -7.592611
v 8.261843 2.003626 -7.249186
v -15.36487 2.046105 -7.402878
v -4.410024 2.003625 -7.249185
v -9.597117 -4.066132E-07 -7.592611
v 1.927909 3.945256 -6.383558
v -3.830761 5.445703 -5.180864
v 17.27165 -2.046105 -7.402878
v 8.261842 -2.003625 -7.249185
v -3.830764 -5.445704 -5.180864
v 1.927908 -3.945256 -6.383558
v 7.683667 -5.445703 -5.180864
v -4.410025 -2.003626 -7.249185
v -15.36487 -2.046106 -7.402878
v 22.92363 -4.011733 -6.49112
v 26.68267 -6.856732 -1.484773
v 26.39891 -5.912203 -4.278111
v 16.58769 -5.834966 -4.983657
v 10 -6.72494 -3.446271
v 26.68267 -6.856732 1.484773
v 20.50351 -7.681783 1.311024E-08
v 1.927907 -7.169799 2.215589
v 10.25175 -7.463118 1.274853
v 10 -6.72494 3.44627
v 10.25175 -7.463118 -1.274853
v 1.927907 -7.169799 -2.21559
v -7.393733 -6.724941 3.446271
v -8.331878 -7.463119 1.274853
v -24.69612 -6.856733 -1.484773
v -18.5969 -7.681785 -1.797915E-07
v -24.69612 -6.856733 1.484773
v -8.331878 -7.463119 -1.274853
v -7.393734 -6.724941 -3.446271
v -3.830764 -5.445704 5.180864
v -14.68009 -5.834968 4.983657
v -24.38883 -1.484852 7.207616
v -21.01089 -4.011734 6.49112
v -15.36487 -2.046106 7.402878
v -24.44621 -5.912203 4.27811
v -25.93763 -4.453399 2.401917
v 7.683667 -5.445703 5.180864
v 1.927908 -3.945256 6.383558
v 8.261843 -2.003625 7.249184
v 17.27165 -2.046105 7.402878
v -4.410025 -2.003626 7.249185
v 26.39891 -5.912203 4.278111
v 22.92363 -4.011733 6.49112
v 16.58769 -5.834966 4.983657
v -26.57199 -1.633504 2.643063
v -26.59903 -2.968585 -2.300421E-07
v -25.8295 -8.579025E-07 5.286812
v -26.59903 2.968583 -2.300421E-07
v -26.57199 1.633502 2.643063
v -24.38884 -1.484852 -7.207618
v -25.8295 -8.579025E-07 -5.286812
v -24.38884 1.48485 -7.207618
v -26.57199 -1.633504 -2.643063
v -25.93763 -4.453399 -2.401917
v -25.93763 4.453397 -2.401917
v -26.57199 1.633502 -2.643063
v -14.68009 5.834966 -4.983656
v -21.01089 4.011733 -6.49112
v -24.44621 5.912202 -4.278111
v -24.44621 -5.912203 -4.278111
v -21.01089 -4.011734 -6.49112
v -14.68009 -5.834968 -4.983657

vn -0.0246732 -2.729279E-09 0.9996955
vn 0.02460852 2.722136E-09 0.9996971
vn -0.02467307 0 -0.9996955
vn 0.02460856 -2.722136E-09 -0.9996971
vn -6.525614E-08 0.8480017 0.5299935
vn -7.501367E-08 0.8480017 -0.5299936
vn 7.496949E-08 -0.8480017 0.5299935
vn 6.530028E-08 -0.8480017 -0.5299935
vn 0.852073 0.5234231 0
vn -0.8955268 0.4450076 2.067709E-09
vn 0.8520729 -0.523423 0
vn -0.8955267 -0.4450077 -2.067709E-09
vn -0.008433298 0.5261447 0.8503532
vn 0.0074652 0.5262767 0.8502806
vn 7.075363E-09 -5.107261E-08 1
vn -0.02863522 0.9347601 0.3541238
vn -0.7013567 0.3821683 0.6017028
vn -7.741747E-08 1 0
vn -0.02863521 0.9347601 -0.3541238
vn 0.02913808 0.9351289 -0.3531073
vn 0.02913808 0.935129 0.3531073
vn 0.6619722 0.4007647 0.6333881
vn 0.6619723 -0.4007646 0.6333882
vn 1 0 0
vn 0.6619723 -0.4007646 -0.6333882
vn 0.6619722 0.4007646 -0.6333881
vn -0.008433284 0.5261447 -0.8503532
vn -2.112817E-08 -4.931147E-08 -1
vn 0.007465199 0.5262766 -0.8502806
vn -0.00843327 -0.5261449 -0.8503531
vn 0.007465221 -0.5262764 -0.8502808
vn 0.02913807 -0.9351289 -0.3531072
vn 0.02913807 -0.935129 0.3531073
vn 5.168822E-08 -1 0
vn -0.02863525 -0.9347601 0.3541237
vn -0.02863524 -0.9347601 -0.3541237
vn 0.007465222 -0.5262764 0.8502808
vn -0.7013566 -0.3821684 0.6017027
vn -0.008433286 -0.5261448 0.8503532
vn -1 0 0
vn -0.7013568 -0.3821685 -0.6017026
vn -0.7013567 0.3821684 -0.6017026
vn 0.004619435 0.2780121 0.9605664
vn -0.008027603 0.2740617 0.9616786
vn -0.01222138 -6.196018E-08 0.9999253
vn 0.006179453 0.720888 0.693024
vn -3.522511E-08 0.5124942 0.8586907
vn -0.006941737 0.721558 0.6923191
vn 0.0107081 0 0.9999427
vn 0.007147373 0.2738625 0.9617423
vn -0.00432832 0.2775654 0.960697
vn 0.008469387 0.890632 0.454646
vn -0.008071442 0.7575758 0.6526973
vn -0.9060398 0.3663988 0.2117636
vn -0.2309323 0.7708116 0.5937338
vn -0.3061783 0.9333442 0.1874128
vn -0.09189082 0.5453079 0.8331838
vn -0.2523013 0.2547819 0.9335043
vn -6.437485E-08 0.9575551 0.2882507
vn 0.007956391 0.9878637 0.1551197
vn 0.008469384 0.890632 -0.454646
vn 0.007956391 0.9878636 -0.1551197
vn -6.640876E-08 0.957555 -0.2882507
vn -0.03722365 0.9993069 0
vn -0.3061783 0.9333442 -0.1874128
vn 0.2959934 0.936331 -0.1888706
vn 0.03706689 0.9993128 0
vn 0.2959934 0.936331 0.1888706
vn -0.008799674 0.9877453 -0.1558261
vn -0.009573896 0.8902466 -0.4553781
vn -0.009573908 0.8902467 0.4553781
vn -0.008799678 0.9877453 0.1558261
vn 0.2454294 0.2535573 0.9356672
vn 0.09093322 0.5453067 0.8332897
vn 0.225043 0.7720774 0.5943502
vn 0.8646318 0.4354472 0.2505943
vn 0.008657923 0.7575583 0.65271
vn 0.2454295 -0.2535573 0.9356672
vn 0.8612111 0 0.5082475
vn 0.9598894 -0.280379 -8.354194E-09
vn 0.9514185 -0.1465648 0.2707796
vn 0.8646319 -0.4354472 0.2505943
vn 0.9514185 0.1465648 0.2707796
vn 0.9598893 0.2803791 0
vn 0.8646319 -0.4354472 -0.2505943
vn 0.9514185 -0.1465648 -0.2707796
vn 0.2454295 0.2535573 -0.9356672
vn 0.8612111 0 -0.5082475
vn 0.2454295 -0.2535573 -0.9356672
vn 0.9514185 0.1465648 -0.2707796
vn 0.8646318 0.4354472 -0.2505943
vn 0.225043 0.7720774 -0.5943502
vn 0.004619484 0.2780121 -0.9605664
vn 0.09093322 0.5453067 -0.8332897
vn 0.008657929 0.7575583 -0.65271
vn -0.006941734 0.721558 -0.6923193
vn -0.01222135 -6.409673E-08 -0.9999253
vn -0.008027604 0.2740617 -0.9616786
vn -0.004328263 0.2775655 -0.9606969
vn 0.007147347 0.2738625 -0.9617423
vn 0.01070813 3.744025E-09 -0.9999427
vn -4.909715E-08 0.5124943 -0.8586906
vn 0.006179449 0.7208879 -0.6930241
vn 0.004619485 -0.2780121 -0.9605665
vn -0.008027583 -0.2740617 -0.9616786
vn 0.006179571 -0.7208878 -0.6930242
vn 2.839724E-08 -0.5124943 -0.8586906
vn -0.006941609 -0.721558 -0.6923193
vn 0.007147377 -0.2738625 -0.9617423
vn -0.004328248 -0.2775655 -0.9606969
vn 0.09093323 -0.5453067 -0.8332897
vn 0.2959933 -0.9363312 -0.1888706
vn 0.2250428 -0.7720774 -0.5943502
vn 0.008657919 -0.7575583 -0.6527099
vn -0.009573772 -0.8902466 -0.4553782
vn 0.2959932 -0.9363312 0.1888706
vn 0.03706687 -0.9993128 0
vn 5.088002E-08 -0.9575551 0.2882507
vn -0.008799546 -0.9877453 0.1558261
vn -0.009573784 -0.8902466 0.4553782
vn -0.008799544 -0.9877453 -0.1558261
vn 4.991149E-08 -0.957555 -0.2882507
vn 0.008469502 -0.890632 0.4546458
vn 0.007956494 -0.9878636 0.1551197
vn -0.3061784 -0.9333442 -0.1874127
vn -0.0372237 -0.999307 0
vn -0.3061784 -0.9333442 0.1874127
vn 0.007956496 -0.9878637 -0.1551197
vn 0.008469499 -0.890632 -0.4546459
vn 0.006179576 -0.7208879 0.6930242
vn -0.008071453 -0.7575758 0.6526974
vn -0.2523013 -0.254782 0.9335043
vn -0.09189082 -0.5453078 0.8331839
vn -0.004328304 -0.2775654 0.9606971
vn -0.2309323 -0.7708115 0.5937338
vn -0.9060398 -0.3663988 0.2117636
vn -0.00694161 -0.721558 0.6923191
vn 4.216113E-08 -0.5124941 0.8586906
vn -0.008027582 -0.2740616 0.9616786
vn 0.004619436 -0.2780121 0.9605665
vn 0.007147403 -0.2738625 0.9617423
vn 0.2250428 -0.7720774 0.5943502
vn 0.09093323 -0.5453067 0.8332897
vn 0.008657913 -0.7575584 0.6527099
vn -0.9777064 -0.0993555 0.1849829
vn -0.9835938 -0.1803975 0
vn -0.9022652 0 0.4311816
vn -0.9835938 0.1803975 -1.42675E-09
vn -0.9777064 0.0993555 0.1849829
vn -0.2523014 -0.2547823 -0.9335042
vn -0.9022654 -1.866855E-07 -0.4311812
vn -0.2523013 0.2547821 -0.9335042
vn -0.9777064 -0.09935552 -0.184983
vn -0.9060398 -0.3663988 -0.2117636
vn -0.9060398 0.3663988 -0.2117634
vn -0.9777064 0.0993554 -0.1849828
vn -0.008071419 0.7575757 -0.6526973
vn -0.09189078 0.5453081 -0.8331838
vn -0.2309323 0.7708116 -0.5937338
vn -0.2309324 -0.7708115 -0.5937339
vn -0.09189079 -0.5453079 -0.8331839
vn -0.008071431 -0.7575756 -0.6526975

vt -5.257311 8.506509
vt 5.257311 8.506509
vt -5.257311 -8.506509
vt 5.257311 -8.506509
vt 0 5.257311
vt 0 -5.257311
vt 0 5.257311
vt 0 -5.257311
vt 8.506509 0
vt -8.506509 0
vt 8.506509 0
vt -8.506509 0
vt 3.09017 8.09017
vt -3.09017 8.09017
vt 0 10
vt -5 3.09017
vt -8.09017 5
vt 0 0
vt -5 -3.09017
vt 5 -3.09017
vt 5 3.09017
vt 8.09017 5
vt 8.09017 5
vt 10 0
vt 8.09017 -5
vt 8.09017 -5
vt 3.09017 -8.09017
vt 0 -10
vt -3.09017 -8.09017
vt 3.09017 -8.09017
vt -3.09017 -8.09017
vt 5 -3.09017
vt 5 3.09017
vt 0 0
vt -5 3.09017
vt -5 -3.09017
vt -3.09017 8.09017
vt -8.09017 5
vt 3.09017 8.09017
vt -10 0
vt -8.09017 -5
vt -8.09017 -5
vt 4.428627 8.641878
vt 1.624598 9.510565
vt 2.952418 9.554226
vt -1.476209 6.817183
vt 0 8.506508
vt 1.476209 6.817183
vt -2.952418 9.554226
vt -1.624598 9.510565
vt -4.428627 8.641878
vt -2.388556 4.428627
vt -4.253254 5.877852
vt -8.641878 2.388556
vt -6.881909 4.253254
vt -7.165669 1.476209
vt -5.877852 6.881909
vt -6.817183 7.165669
vt 0 2.952418
vt -2.628655 1.624598
vt -2.388556 -4.428627
vt -2.628655 -1.624598
vt 0 -2.952418
vt -5.257311 0
vt -7.165669 -1.476209
vt 7.165669 -1.476209
vt 5.257311 0
vt 7.165669 1.476209
vt 2.628655 -1.624598
vt 2.388556 -4.428627
vt 2.388556 4.428627
vt 2.628655 1.624598
vt 6.817183 7.165669
vt 5.877852 6.881909
vt 6.881909 4.253254
vt 8.641878 2.388556
vt 4.253254 5.877852
vt 6.817183 7.165669
vt 8.506508 5.257311
vt 9.554226 0
vt 9.510565 2.628655
vt 8.641878 2.388556
vt 9.510565 2.628655
vt 9.554226 0
vt 8.641878 -2.388556
vt 9.510565 -2.628655
vt 6.817183 -7.165669
vt 8.506508 -5.257311
vt 6.817183 -7.165669
vt 9.510565 -2.628655
vt 8.641878 -2.388556
vt 6.881909 -4.253254
vt 4.428627 -8.641878
vt 5.877852 -6.881909
vt 4.253254 -5.877852
vt 1.476209 -6.817183
vt 2.952418 -9.554226
vt 1.624598 -9.510565
vt -4.428627 -8.641878
vt -1.624598 -9.510565
vt -2.952418 -9.554226
vt 0 -8.506508
vt -1.476209 -6.817183
vt 4.428627 -8.641878
vt 1.624598 -9.510565
vt -1.476209 -6.817183
vt 0 -8.506508
vt 1.476209 -6.817183
vt -1.624598 -9.510565
vt -4.428627 -8.641878
vt 5.877852 -6.881909
vt 7.165669 -1.476209
vt 6.881909 -4.253254
vt 4.253254 -5.877852
vt 2.388556 -4.428627
vt 7.165669 1.476209
vt 5.257311 0
vt 0 2.952418
vt 2.628655 1.624598
vt 2.388556 4.428627
vt 2.628655 -1.624598
vt 0 -2.952418
vt -2.388556 4.428627
vt -2.628655 1.624598
vt -7.165669 -1.476209
vt -5.257311 0
vt -7.165669 1.476209
vt -2.628655 -1.624598
vt -2.388556 -4.428627
vt -1.476209 6.817183
vt -4.253254 5.877852
vt -6.817183 7.165669
vt -5.877852 6.881909
vt -4.428627 8.641878
vt -6.881909 4.253254
vt -8.641878 2.388556
vt 1.476209 6.817183
vt 0 8.506508
vt 1.624598 9.510565
vt 4.428627 8.641878
vt -1.624598 9.510565
vt 6.881909 4.253254
vt 5.877852 6.881909
vt 4.253254 5.877852
vt -9.510565 2.628655
vt -9.554226 0
vt -8.506508 5.257311
vt -9.554226 0
vt -9.510565 2.628655
vt -6.817183 -7.165669
vt -8.506508 -5.257311
vt -6.817183 -7.165669
vt -9.510565 -2.628655
vt -8.641878 -2.388556
vt -8.641878 -2.388556
vt -9.510565 -2.628655
vt -4.253254 -5.877852
vt -5.877852 -6.881909
vt -6.881909 -4.253254
vt -6.881909 -4.253254
vt -5.877852 -6.881909
vt -4.253254 -5.877852

usemtl a sphere-lambert1
usemap a sphere-lambert1
f 2/2/2 43/43/43 45/45/45
f 13/13/13 44/44/44 43/43/43
f 15/15/15 45/45/45 44/44/44
f 45/45/45 43/43/43 44/44/44
f 5/5/5 46/46/46 48/48/48
f 14/14/14 47/47/47 46/46/46
f 13/13/13 48/48/48 47/47/47
f 48/48/48 46/46/46 47/47/47
f 1/1/1 49/49/49 51/51/51
f 15/15/15 50/50/50 49/49/49
f 14/14/14 51/51/51 50/50/50
f 51/51/51 49/49/49 50/50/50
f 15/15/15 44/44/44 50/50/50
f 13/13/13 47/47/47 44/44/44
f 14/14/14 50/50/50 47/47/47
f 50/50/50 44/44/44 47/47/47
f 5/5/5 52/52/52 46/46/46
f 16/16/16 53/53/53 52/52/52
f 14/14/14 46/46/46 53/53/53
f 46/46/46 52/52/52 53/53/53
f 10/10/10 54/54/54 56/56/56
f 17/17/17 55/55/55 54/54/54
f 16/16/16 56/56/56 55/55/55
f 56/56/56 54/54/54 55/55/55
f 1/1/1 51/51/51 58/58/58
f 14/14/14 57/57/57 51/51/51
f 17/17/17 58/58/58 57/57/57
f 58/58/58 51/51/51 57/57/57
f 14/14/14 53/53/53 57/57/57
f 16/16/16 55/55/55 53/53/53
f 17/17/17 57/57/57 55/55/55
f 57/57/57 53/53/53 55/55/55
f 5/5/5 59/59/59 52/52/52
f 18/18/18 60/60/60 59/59/59
f 16/16/16 52/52/52 60/60/60
f 52/52/52 59/59/59 60/60/60
f 6/6/6 61/61/61 63/63/63
f 19/19/19 62/62/62 61/61/61
f 18/18/18 63/63/63 62/62/62
f 63/63/63 61/61/61 62/62/62
f 10/10/10 56/56/56 65/65/65
f 16/16/16 64/64/64 56/56/56
f 19/19/19 65/65/65 64/64/64
f 65/65/65 56/56/56 64/64/64
f 16/16/16 60/60/60 64/64/64
f 18/18/18 62/62/62 60/60/60
f 19/19/19 64/64/64 62/62/62
f 64/64/64 60/60/60 62/62/62
f 9/9/9 66/66/66 68/68/68
f 20/20/20 67/67/67 66/66/66
f 21/21/21 68/68/68 67/67/67
f 68/68/68 66/66/66 67/67/67
f 6/6/6 63/63/63 70/70/70
f 18/18/18 69/69/69 63/63/63
f 20/20/20 70/70/70 69/69/69
f 70/70/70 63/63/63 69/69/69
f 5/5/5 71/71/71 59/59/59
f 21/21/21 72/72/72 71/71/71
f 18/18/18 59/59/59 72/72/72
f 59/59/59 71/71/71 72/72/72
f 21/21/21 67/67/67 72/72/72
f 20/20/20 69/69/69 67/67/67
f 18/18/18 72/72/72 69/69/69
f 72/72/72 67/67/67 69/69/69
f 2/2/2 73/73/73 43/43/43
f 22/22/22 74/74/74 73/73/73
f 13/13/13 43/43/43 74/74/74
f 43/43/43 73/73/73 74/74/74
f 9/9/9 68/68/68 76/76/76
f 21/21/21 75/75/75 68/68/68
f 22/22/22 76/76/76 75/75/75
f 76/76/76 68/68/68 75/75/75
f 5/5/5 48/48/48 71/71/71
f 13/13/13 77/77/77 48/48/48
f 21/21/21 71/71/71 77/77/77
f 71/71/71 48/48/48 77/77/77
f 13/13/13 74/74/74 77/77/77
f 22/22/22 75/75/75 74/74/74
f 21/21/21 77/77/77 75/75/75
f 77/77/77 74/74/74 75/75/75
f 2/2/2 78/78/78 73/73/73
f 23/23/23 79/79/79 78/78/78
f 22/22/22 73/73/73 79/79/79
f 73/73/73 78/78/78 79/79/79
f 11/11/11 80/80/80 82/82/82
f 24/24/24 81/81/81 80/80/80
f 23/23/23 82/82/82 81/81/81
f 82/82/82 80/80/80 81/81/81
f 9/9/9 76/76/76 84/84/84
f 22/22/22 83/83/83 76/76/76
f 24/24/24 84/84/84 83/83/83
f 84/84/84 76/76/76 83/83/83
f 22/22/22 79/79/79 83/83/83
f 23/23/23 81/81/81 79/79/79
f 24/24/24 83/83/83 81/81/81
f 83/83/83 79/79/79 81/81/81
f 11/11/11 85/85/85 80/80/80
f 25/25/25 86/86/86 85/85/85
f 24/24/24 80/80/80 86/86/86
f 80/80/80 85/85/85 86/86/86
f 4/4/4 87/87/87 89/89/89
f 26/26/26 88/88/88 87/87/87
f 25/25/25 89/89/89 88/88/88
f 89/89/89 87/87/87 88/88/88
f 9/9/9 84/84/84 91/91/91
f 24/24/24 90/90/90 84/84/84
f 26/26/26 91/91/91 90/90/90
f 91/91/91 84/84/84 90/90/90
f 24/24/24 86/86/86 90/90/90
f 25/25/25 88/88/88 86/86/86
f 26/26/26 90/90/90 88/88/88
f 90/90/90 86/86/86 88/88/88
f 9/9/9 91/91/91 66/66/66
f 26/26/26 92/92/92 91/91/91
f 20/20/20 66/66/66 92/92/92
f 66/66/66 91/91/91 92/92/92
f 4/4/4 93/93/93 87/87/87
f 27/27/27 94/94/94 93/93/93
f 26/26/26 87/87/87 94/94/94
f 87/87/87 93/93/93 94/94/94
f 6/6/6 70/70/70 96/96/96
f 20/20/20 95/95/95 70/70/70
f 27/27/27 96/96/96 95/95/95
f 96/96/96 70/70/70 95/95/95
f 20/20/20 92/92/92 95/95/95
f 26/26/26 94/94/94 92/92/92
f 27/27/27 95/95/95 94/94/94
f 95/95/95 92/92/92 94/94/94
f 4/4/4 97/97/97 93/93/93
f 28/28/28 98/98/98 97/97/97
f 27/27/27 93/93/93 98/98/98
f 93/93/93 97/97/97 98/98/98
f 3/3/3 99/99/99 101/101/101
f 29/29/29 100/100/100 99/99/99
f 28/28/28 101/101/101 100/100/100
f 101/101/101 99/99/99 100/100/100
f 6/6/6 96/96/96 103/103/103
f 27/27/27 102/102/102 96/96/96
f 29/29/29 103/103/103 102/102/102
f 103/103/103 96/96/96 102/102/102
f 27/27/27 98/98/98 102/102/102
f 28/28/28 100/100/100 98/98/98
f 29/29/29 102/102/102 100/100/100
f 102/102/102 98/98/98 100/100/100
f 4/4/4 104/104/104 97/97/97
f 30/30/30 105/105/105 104/104/104
f 28/28/28 97/97/97 105/105/105
f 97/97/97 104/104/104 105/105/105
f 8/8/8 106/106/106 108/108/108
f 31/31/31 107/107/107 106/106/106
f 30/30/30 108/108/108 107/107/107
f 108/108/108 106/106/106 107/107/107
f 3/3/3 101/101/101 110/110/110
f 28/28/28 109/109/109 101/101/101
f 31/31/31 110/110/110 109/109/109
f 110/110/110 101/101/101 109/109/109
f 28/28/28 105/105/105 109/109/109
f 30/30/30 107/107/107 105/105/105
f 31/31/31 109/109/109 107/107/107
f 109/109/109 105/105/105 107/107/107
f 4/4/4 89/89/89 104/104/104
f 25/25/25 111/111/111 89/89/89
f 30/30/30 104/104/104 111/111/111
f 104/104/104 89/89/89 111/111/111
f 11/11/11 112/112/112 85/85/85
f 32/32/32 113/113/113 112/112/112
f 25/25/25 85/85/85 113/113/113
f 85/85/85 112/112/112 113/113/113
f 8/8/8 108/108/108 115/115/115
f 30/30/30 114/114/114 108/108/108
f 32/32/32 115/115/115 114/114/114
f 115/115/115 108/108/108 114/114/114
f 30/30/30 111/111/111 114/114/114
f 25/25/25 113/113/113 111/111/111
f 32/32/32 114/114/114 113/113/113
f 114/114/114 111/111/111 113/113/113
f 11/11/11 116/116/116 112/112/112
f 33/33/33 117/117/117 116/116/116
f 32/32/32 112/112/112 117/117/117
f 112/112/112 116/116/116 117/117/117
f 7/7/7 118/118/118 120/120/120
f 34/34/34 119/119/119 118/118/118
f 33/33/33 120/120/120 119/119/119
f 120/120/120 118/118/118 119/119/119
f 8/8/8 115/115/115 122/122/122
f 32/32/32 121/121/121 115/115/115
f 34/34/34 122/122/122 121/121/121
f 122/122/122 115/115/115 121/121/121
f 32/32/32 117/117/117 121/121/121
f 33/33/33 119/119/119 117/117/117
f 34/34/34 121/121/121 119/119/119
f 121/121/121 117/117/117 119/119/119
f 7/7/7 123/123/123 118/118/118
f 35/35/35 124/124/124 123/123/123
f 34/34/34 118/118/118 124/124/124
f 118/118/118 123/123/123 124/124/124
f 12/12/12 125/125/125 127/127/127
f 36/36/36 126/126/126 125/125/125
f 35/35/35 127/127/127 126/126/126
f 127/127/127 125/125/125 126/126/126
f 8/8/8 122/122/122 129/129/129
f 34/34/34 128/128/128 122/122/122
f 36/36/36 129/129/129 128/128/128
f 129/129/129 122/122/122 128/128/128
f 34/34/34 124/124/124 128/128/128
f 35/35/35 126/126/126 124/124/124
f 36/36/36 128/128/128 126/126/126
f 128/128/128 124/124/124 126/126/126
f 7/7/7 130/130/130 123/123/123
f 37/37/37 131/131/131 130/130/130
f 35/35/35 123/123/123 131/131/131
f 123/123/123 130/130/130 131/131/131
f 1/1/1 132/132/132 134/134/134
f 38/38/38 133/133/133 132/132/132
f 37/37/37 134/134/134 133/133/133
f 134/134/134 132/132/132 133/133/133
f 12/12/12 127/127/127 136/136/136
f 35/35/35 135/135/135 127/127/127
f 38/38/38 136/136/136 135/135/135
f 136/136/136 127/127/127 135/135/135
f 35/35/35 131/131/131 135/135/135
f 37/37/37 133/133/133 131/131/131
f 38/38/38 135/135/135 133/133/133
f 135/135/135 131/131/131 133/133/133
f 7/7/7 137/137/137 130/130/130
f 39/39/39 138/138/138 137/137/137
f 37/37/37 130/130/130 138/138/138
f 130/130/130 137/137/137 138/138/138
f 2/2/2 45/45/45 140/140/140
f 15/15/15 139/139/139 45/45/45
f 39/39/39 140/140/140 139/139/139
f 140/140/140 45/45/45 139/139/139
f 1/1/1 134/134/134 49/49/49
f 37/37/37 141/141/141 134/134/134
f 15/15/15 49/49/49 141/141/141
f 49/49/49 134/134/134 141/141/141
f 37/37/37 138/138/138 141/141/141
f 39/39/39 139/139/139 138/138/138
f 15/15/15 141/141/141 139/139/139
f 141/141/141 138/138/138 139/139/139
f 11/11/11 82/82/82 116/116/116
f 23/23/23 142/142/142 82/82/82
f 33/33/33 116/116/116 142/142/142
f 116/116/116 82/82/82 142/142/142
f 2/2/2 140/140/140 78/78/78
f 39/39/39 143/143/143 140/140/140
f 23/23/23 78/78/78 143/143/143
f 78/78/78 140/140/140 143/143/143
f 7/7/7 120/120/120 137/137/137
f 33/33/33 144/144/144 120/120/120
f 39/39/39 137/137/137 144/144/144
f 137/137/137 120/120/120 144/144/144
f 33/33/33 142/142/142 144/144/144
f 23/23/23 143/143/143 142/142/142
f 39/39/39 144/144/144 143/143/143
f 144/144/144 142/142/142 143/143/143
f 12/12/12 136/136/136 146/146/146
f 38/38/38 145/145/145 136/136/136
f 40/40/40 146/146/146 145/145/145
f 146/146/146 136/136/136 145/145/145
f 1/1/1 58/58/58 132/132/132
f 17/17/17 147/147/147 58/58/58
f 38/38/38 132/132/132 147/147/147
f 132/132/132 58/58/58 147/147/147
f 10/10/10 148/148/148 54/54/54
f 40/40/40 149/149/149 148/148/148
f 17/17/17 54/54/54 149/149/149
f 54/54/54 148/148/148 149/149/149
f 40/40/40 145/145/145 149/149/149
f 38/38/38 147/147/147 145/145/145
f 17/17/17 149/149/149 147/147/147
f 149/149/149 145/145/145 147/147/147
f 3/3/3 150/150/150 152/152/152
f 41/41/41 151/151/151 150/150/150
f 42/42/42 152/152/152 151/151/151
f 152/152/152 150/150/150 151/151/151
f 12/12/12 146/146/146 154/154/154
f 40/40/40 153/153/153 146/146/146
f 41/41/41 154/154/154 153/153/153
f 154/154/154 146/146/146 153/153/153
f 10/10/10 155/155/155 148/148/148
f 42/42/42 156/156/156 155/155/155
f 40/40/40 148/148/148 156/156/156
f 148/148/148 155/155/155 156/156/156
f 42/42/42 151/151/151 156/156/156
f 41/41/41 153/153/153 151/151/151
f 40/40/40 156/156/156 153/153/153
f 156/156/156 151/151/151 153/153/153
f 6/6/6 103/103/103 61/61/61
f 29/29/29 157/157/157 103/103/103
f 19/19/19 61/61/61 157/157/157
f 61/61/61 103/103/103 157/157/157
f 3/3/3 152/152/152 99/99/99
f 42/42/42 158/158/158 152/152/152
f 29/29/29 99/99/99 158/158/158
f 99/99/99 152/152/152 158/158/158
f 10/10/10 65/65/65 155/155/155
f 19/19/19 159/159/159 65/65/65
f 42/42/42 155/155/155 159/159/159
f 155/155/155 65/65/65 159/159/159
f 19/19/19 157/157/157 159/159/159
f 29/29/29 158/158/158 157/157/157
f 42/42/42 159/159/159 158/158/158
f 159/159/159 157/157/157 158/158/158
f 12/12/12 154/154/154 125/125/125
f 41/41/41 160/160/160 154/154/154
f 36/36/36 125/125/125 160/160/160
f 125/125/125 154/154/154 160/160/160
f 3/3/3 110/110/110 150/150/150
f 31/31/31 161/161/161 110/110/110
f 41/41/41 150/150/150 161/161/161
f 150/150/150 110/110/110 161/161/161
f 8/8/8 129/129/129 106/106/106
f 36/36/36 162/162/162 129/129/129
f 31/31/31 106/106/106 162/162/162
f 106/106/106 129/129/129 162/162/162
f 36/36/36 160/160/160 162/162/162
f 41/41/41 161/161/161 160/160/160
f 31/31/31 162/162/162 161/161/161
f 162/162/162 160/160/160 161/161/161